<svg width="64" height="64" viewBox="0 0 64 64" fill="none" xmlns="http://www.w3.org/2000/svg">
<path d="M46.707 29.0615H45.5V29H32V35H40.4785C39.2393 38.4922 35.917 41 32 41C27.0283 41 23 36.9717 23 32C23 27.0283 27.0283 23 32 23C34.2939 23 36.3828 23.8643 37.9707 25.2793L42.2129 21.0371C39.5352 18.541 35.9521 17 32 17C23.7148 17 17 23.7148 17 32C17 40.2852 23.7148 47 32 47C40.2852 47 47 40.2852 47 32C47 30.9951 46.8975 30.0137 46.707 29.0615Z" fill="#FFC107"/>
<path d="M18.7285 25.0186L23.6592 28.6338C24.9922 25.332 28.2207 23 32 23C34.2939 23 36.3828 23.8643 37.9707 25.2793L42.2129 21.0371C39.5352 18.541 35.9521 17 32 17C26.2373 17 21.2422 20.252 18.7285 25.0186Z" fill="#FF3D00"/>
<path d="M32.0002 47C35.8733 47 39.3948 45.5176 42.0579 43.1064L37.4143 39.1777C35.9084 40.3174 34.0364 41 32.0002 41C28.0979 41 24.7874 38.5127 23.5393 35.041L18.6467 38.8086C21.1282 43.666 26.1702 47 32.0002 47Z" fill="#4CAF50"/>
<path d="M46.707 29.0615H45.5V29H32V35H40.4785C39.8838 36.6787 38.8027 38.123 37.4111 39.1777C37.4141 39.1777 37.4141 39.1777 37.4141 39.1777L42.0576 43.1064C41.7295 43.4023 47 39.5 47 32C47 30.9951 46.8975 30.0137 46.707 29.0615Z" fill="#1976D2"/>
<circle cx="32" cy="32" r="31.5" stroke="#DEDEDE"/>
</svg>
